<!-- Generated by LeviEikoDesigns.com -->
<!-- Kanji stroke patter -->
<!-- Thick width is 50pts, Thin width difference is +/-10pts -->
<svg 
  version="1.1" 
  viewBox="0 0 800 400"
  >
  <title>Eiko</title>

  <style>
    path.letter-svg {
      stroke: black;
      fill: black;
    }
  </style>

  <!-- Eiko -->
  <path 
    class="letter-svg E" 
    d="
      M0 0 H50 V400 H0 V0 Z 
      M75 0 H200 V50 H75 Z
      M75 175 H160 V225 H75 Z
      M75 350 H200 V400 H75 Z
    "/>
  <path 
    class="letter-svg i"
    d="
      M260,400 L260,100 310,100 310,400  Z 
      M260,50 L260,0 310,0 310,50 Z
    " />
  <path 
    class="letter-svg k" 
    d="
      M370,0 L370,400 420,400 420,0 Z 
      M445,300 L445,225 L510,100 560,100 495,225 580,400 530,400 470,275 445,320 Z
    "/>
  <path 
    class="letter-svg o"
    d="
      M690,100 Q615,100 615,175 L615,325 Q615,400 690,400 L690,350 Q665,350 665,325 L665,175 Q665,150 690,150 Z
      M715,100 Q790,100 790,175 L790,325 Q790,400 715,400 L715,350 Q740,350 740,325 L740,175 Q740,150 715,150 Z
    " />
</svg>
