<svg width="500" height="500" viewBox="0 0 500 500" xmlns="http://www.w3.org/2000/svg" xmlns:xlink="http://www.w3.org/1999/xlink">
<rect x="0" y="0" width="500" height="500" fill="white" stroke-width="25" stroke="black"/>
<path d="M290.906 217.922H387.938V240H263.766V35.25H290.906V217.922Z" fill="black"/>
<path d="M196.828 186.562H111.047L91.7812 240H63.9375L142.125 35.25H165.75L244.078 240H216.375L196.828 186.562ZM119.203 164.344H188.812L153.938 68.5781L119.203 164.344Z" fill="black"/>
<path d="M94.8075 253L153.938 420.266L213.068 253H244V458H220.149V378.168L222.385 292.001L163.006 458H144.745L85.4907 292.423L87.8509 378.168V458H64V253H94.8075Z" fill="black"/>
<path d="M311.172 307.437L396.953 307.437L416.219 254L444.063 254L365.875 458.75L342.25 458.75L263.922 254L291.625 254L311.172 307.437ZM388.797 329.656L319.188 329.656L354.063 425.422L388.797 329.656Z" fill="black"/>
</svg>
